<svg   
  aria-hidden="true"
  version="1.1"
  style="position: absolute; width: 0; height: 0; overflow: hidden;"
  xmlns="http://www.w3.org/2000/svg"
  xmlns:xlink="http://www.w3.org/1999/xlink">
<defs>
  <symbol viewBox="0 0 20 20" id="log-in">
    <path d="M12.5 2.5H13.5C14.9001 2.5 15.6002 2.5 16.135 2.77248C16.6054 3.01217 16.9878 3.39462 17.2275 3.86502C17.5 4.3998 17.5 5.09987 17.5 6.5V13.5C17.5 14.9001 17.5 15.6002 17.2275 16.135C16.9878 16.6054 16.6054 16.9878 16.135 17.2275C15.6002 17.5 14.9001 17.5 13.5 17.5H12.5" stroke-width="2" stroke-linecap="round" stroke-linejoin="round"></path>
    <path d="M8.33333 5.83325L12.5 9.99992M12.5 9.99992L8.33333 14.1666M12.5 9.99992L2.5 9.99992" stroke-width="2" stroke-linecap="round" stroke-linejoin="round"></path>
  </symbol>
  <symbol viewBox="0 0 32 32" id="close">
    <path d="M24 8L8 24" stroke="#121417" stroke-width="2.5" stroke-linecap="round" stroke-linejoin="round"></path>
    <path d="M8 8L24 24" stroke="#121417" stroke-width="2.5" stroke-linecap="round" stroke-linejoin="round"></path>
  </symbol>
  <symbol viewBox="0 0 20 20" id="eye">
    <g clip-path="url(#clip0_31_2517)">
      <path d="M0.833313 10C0.833313 10 4.16665 3.33337 9.99998 3.33337C15.8333 3.33337 19.1666 10 19.1666 10C19.1666 10 15.8333 16.6667 9.99998 16.6667C4.16665 16.6667 0.833313 10 0.833313 10Z" stroke="#11101C" stroke-width="2" stroke-linecap="round" stroke-linejoin="round"></path>
      <path d="M10 12.5C11.3807 12.5 12.5 11.3807 12.5 10C12.5 8.61929 11.3807 7.5 10 7.5C8.61929 7.5 7.5 8.61929 7.5 10C7.5 11.3807 8.61929 12.5 10 12.5Z" stroke="#11101C" stroke-width="2" stroke-linecap="round" stroke-linejoin="round"></path>
    </g>
    <defs>
      <clipPath id="clip0_31_2517">
        <rect width="20" height="20" fill="white"></rect>
      </clipPath>
    </defs>
  </symbol>
  <symbol viewBox="0 0 20 20" id="eye-off">
    <g clip-path="url(#clip0_27_348)">
      <path d="M14.9502 14.9499C13.5257 16.0358 11.7911 16.6373 10.0002 16.6666C4.16683 16.6666 0.833496 9.99994 0.833496 9.99994C1.87007 8.06819 3.30778 6.38045 5.05016 5.04994M8.25016 3.53327C8.82377 3.39901 9.41105 3.33189 10.0002 3.33327C15.8335 3.33327 19.1668 9.99994 19.1668 9.99994C18.661 10.9463 18.0577 11.8372 17.3668 12.6583M11.7668 11.7666C11.538 12.0122 11.262 12.2092 10.9553 12.3459C10.6486 12.4825 10.3176 12.556 9.98191 12.5619C9.64623 12.5678 9.3128 12.5061 9.00151 12.3803C8.69021 12.2546 8.40743 12.0675 8.17004 11.8301C7.93264 11.5927 7.74549 11.3099 7.61975 10.9986C7.49402 10.6873 7.43227 10.3539 7.43819 10.0182C7.44411 9.68252 7.51759 9.35148 7.65423 9.04481C7.79087 8.73815 7.98787 8.46215 8.2335 8.23327" stroke="#121417" stroke-width="2" stroke-linecap="round" stroke-linejoin="round"></path>
      <path d="M0.833496 0.833374L19.1668 19.1667" stroke="#121417" stroke-width="2" stroke-linecap="round" stroke-linejoin="round"></path>
    </g>
    <defs>
      <clipPath id="clip0_27_348">
        <rect width="20" height="20" fill="white"></rect>
      </clipPath>
    </defs>
  </symbol>
  <symbol viewBox="0 0 16 16" id="user">
    <path d="M8 0C9.06087 0 10.0783 0.421427 10.8284 1.17157C11.5786 1.92172 12 2.93913 12 4C12 5.06087 11.5786 6.07828 10.8284 6.82843C10.0783 7.57857 9.06087 8 8 8C6.93913 8 5.92172 7.57857 5.17157 6.82843C4.42143 6.07828 4 5.06087 4 4C4 2.93913 4.42143 1.92172 5.17157 1.17157C5.92172 0.421427 6.93913 0 8 0ZM8 10C12.42 10 16 11.79 16 14V16H0V14C0 11.79 3.58 10 8 10Z" fill="#FBFBFB"></path>
  </symbol>
  <symbol viewBox="0 0 16 16" id="book">
    <path d="M14.6667 4.13333C14.6667 3.3866 14.6667 3.01323 14.5213 2.72801C14.3935 2.47713 14.1895 2.27316 13.9387 2.14532C13.6534 2 13.2801 2 12.5333 2H12.2667C10.7732 2 10.0265 2 9.45603 2.29065C8.95426 2.54631 8.54631 2.95426 8.29065 3.45603C8 4.02646 8 4.77319 8 6.26667V14L8.0667 13.8999C8.5298 13.2053 8.76135 12.858 9.06727 12.6065C9.33809 12.3839 9.65016 12.2169 9.9856 12.1151C10.3645 12 10.7819 12 11.6168 12H12.5333C13.2801 12 13.6534 12 13.9387 11.8547C14.1895 11.7268 14.3935 11.5229 14.5213 11.272C14.6667 10.9868 14.6667 10.6134 14.6667 9.86667V4.13333Z" stroke="black" stroke-width="1.5" stroke-linecap="round" stroke-linejoin="round"></path>
    <path d="M1.33331 4.13333C1.33331 3.3866 1.33331 3.01323 1.47864 2.72801C1.60647 2.47713 1.81044 2.27316 2.06133 2.14532C2.34654 2 2.71991 2 3.46665 2H3.73331C5.22679 2 5.97352 2 6.54395 2.29065C7.04572 2.54631 7.45367 2.95426 7.70933 3.45603C7.99998 4.02646 7.99998 4.77319 7.99998 6.26667V14L7.93328 13.8999C7.47018 13.2053 7.23863 12.858 6.93271 12.6065C6.66188 12.3839 6.34982 12.2169 6.01438 12.1151C5.63548 12 5.21805 12 4.3832 12H3.46665C2.71991 12 2.34654 12 2.06133 11.8547C1.81044 11.7268 1.60647 11.5229 1.47864 11.272C1.33331 10.9868 1.33331 10.6134 1.33331 9.86667V4.13333Z" stroke="black" stroke-width="1.5" stroke-linecap="round" stroke-linejoin="round"></path>
  </symbol>
  <symbol viewBox="0 0 16 16" id="star">
    <g clip-path="url(#clip0_44_535)">
      <path d="M9.7998 4.69727C9.95896 4.99878 10.249 5.20939 10.585 5.26758L14.3848 5.92383L11.6973 8.69141C11.4895 8.9053 11.3788 9.19279 11.3867 9.4873L11.3975 9.61426L11.9463 13.4316L8.48535 11.7305L8.36816 11.6807C8.13008 11.5961 7.86992 11.5961 7.63184 11.6807L7.51465 11.7305L4.05273 13.4316L4.60254 9.61426C4.64501 9.31888 4.56551 9.02085 4.38574 8.78711L4.30273 8.69141L1.61426 5.92383L5.41504 5.26758C5.70911 5.21664 5.96806 5.04894 6.13477 4.80566L6.2002 4.69727L8 1.28613L9.7998 4.69727Z" fill="#FFC531" stroke="#FFC531" stroke-width="1.2"></path>
    </g>
    <defs>
      <clipPath id="clip0_44_535">
        <rect width="16" height="16" fill="white"></rect>
      </clipPath>
    </defs>
  </symbol>
  <symbol viewBox="0 0 26 22" id="heart">
    <path d="M22.5766 2.99419C22.0233 2.44061 21.3663 2.00147 20.6433 1.70187C19.9202 1.40226 19.1452 1.24805 18.3625 1.24805C17.5798 1.24805 16.8047 1.40226 16.0817 1.70187C15.3586 2.00147 14.7016 2.44061 14.1483 2.99419L13 4.14252L11.8516 2.99419C10.734 1.87652 9.21809 1.24863 7.63747 1.24863C6.05685 1.24863 4.54097 1.87652 3.4233 2.99419C2.30563 4.11186 1.67773 5.62774 1.67773 7.20836C1.67773 8.78898 2.30563 10.3049 3.4233 11.4225L4.57163 12.5709L13 20.9992L21.4283 12.5709L22.5766 11.4225C23.1302 10.8692 23.5693 10.2122 23.869 9.48916C24.1686 8.76608 24.3228 7.99105 24.3228 7.20836C24.3228 6.42566 24.1686 5.65064 23.869 4.92756C23.5693 4.20448 23.1302 3.54751 22.5766 2.99419Z" stroke-width="2" stroke-linecap="round" stroke-linejoin="round"></path>
  </symbol>
  <symbol viewBox="0 0 12 8" id="arrow-down">
    <path d="M1 1.5L6 6.5L11 1.5" stroke="#121417" stroke-width="2" stroke-linecap="round" stroke-linejoin="round"></path>
  </symbol>
  <symbol viewBox="0 0 12 8" id="arrow-up">
    <path d="M11 6.5L6 1.5L1 6.5" stroke="#121417" stroke-width="2" stroke-linecap="round" stroke-linejoin="round"></path>
  </symbol>
  <symbol viewBox="0 0 512.001 512.001" id="tap">
    <g>
      <g>
        <path d="M401.809,212.523c-12.295-1.17-24.556,2.892-33.639,11.15c-1.122,1.021-2.186,2.096-3.188,3.217
			c-6.805-12.704-19.329-21.819-33.946-23.214c-12.295-1.17-24.556,2.892-33.639,11.15c-1.122,1.021-2.186,2.096-3.188,3.217
			c-5.941-11.089-16.24-19.443-28.485-22.315c21.223-21.098,33.958-50.2,33.958-81.275C299.681,51.344,248.337,0,185.227,0
			S70.774,51.344,70.774,114.454c0,46.302,28.254,88.244,70.773,105.817v49.155l-31.869,22.764
			c-18.882,13.488-26.638,37.341-19.3,59.353l31.431,94.297c13.193,39.573,50.082,66.162,91.796,66.162h130.862
			c53.354,0,96.76-43.406,96.76-96.76V257.522C441.227,234.396,423.913,214.632,401.809,212.523z M87.361,114.454
			c0-53.963,43.903-97.866,97.866-97.866c53.963,0,97.866,43.903,97.866,97.866c0,37.248-21.382,71.191-54.186,87.594v-21.686
			c21.942-14.579,35.387-39.4,35.387-65.908c0-43.597-35.47-79.067-79.067-79.067c-43.597,0-79.067,35.47-79.067,79.067
			c0,26.506,13.446,51.328,35.387,65.908v21.686C108.745,185.645,87.361,151.701,87.361,114.454z M189.489,70.978
			c-12.296-1.172-24.556,2.89-33.638,11.149c-9.09,8.265-14.304,20.048-14.304,32.327v44.644
			c-11.839-11.626-18.799-27.699-18.799-44.644c0-34.451,28.028-62.479,62.479-62.479c34.451,0,62.479,28.028,62.479,62.479
			c0,16.947-6.96,33.019-18.799,44.645v-43.123C228.908,92.85,211.594,73.084,189.489,70.978z M344.467,495.413H213.604
			c-34.564,0-65.129-22.03-76.059-54.819l-31.431-94.296c-5.022-15.061,0.285-31.381,13.205-40.609l22.228-15.878v72.352
			c0,4.58,3.712,8.294,8.294,8.294c4.581,0,8.294-3.713,8.294-8.294V114.454c0-7.617,3.235-14.927,8.874-20.053
			c5.716-5.197,13.146-7.652,20.906-6.91c13.686,1.304,24.406,13.816,24.406,28.484v175.413c0,4.58,3.712,8.294,8.294,8.294
			c4.581,0,8.294-3.713,8.294-8.294v-53.08c0-7.617,3.235-14.927,8.874-20.053c5.715-5.196,13.137-7.657,20.906-6.91
			c13.685,1.305,24.405,13.817,24.405,28.485v7.325v53.08c0,4.58,3.712,8.294,8.294,8.294s8.294-3.713,8.294-8.294v-53.08
			c0-7.617,3.235-14.927,8.874-20.053c5.715-5.196,13.137-7.657,20.906-6.91c13.685,1.305,24.405,13.817,24.405,28.485V256v53.08
			c0,4.58,3.712,8.294,8.294,8.294s8.294-3.713,8.294-8.294V256c0-7.617,3.234-14.927,8.874-20.053
			c5.715-5.196,13.137-7.657,20.906-6.91c13.685,1.305,24.405,13.817,24.405,28.485V415.24h0.003
			C424.64,459.448,388.675,495.413,344.467,495.413z"></path>
      </g>
    </g>
  </symbol>
</defs>
</svg>