<svg width="0" height="0" class="hidden">
  <symbol fill="none" xmlns="http://www.w3.org/2000/svg" viewBox="0 0 20 20" id="log-in">
    <path d="M12.5 2.5H13.5C14.9001 2.5 15.6002 2.5 16.135 2.77248C16.6054 3.01217 16.9878 3.39462 17.2275 3.86502C17.5 4.3998 17.5 5.09987 17.5 6.5V13.5C17.5 14.9001 17.5 15.6002 17.2275 16.135C16.9878 16.6054 16.6054 16.9878 16.135 17.2275C15.6002 17.5 14.9001 17.5 13.5 17.5H12.5" stroke="#F4C550" stroke-width="2" stroke-linecap="round" stroke-linejoin="round"></path>
    <path d="M8.33333 5.83325L12.5 9.99992M12.5 9.99992L8.33333 14.1666M12.5 9.99992L2.5 9.99992" stroke="#F4C550" stroke-width="2" stroke-linecap="round" stroke-linejoin="round"></path>
  </symbol>

  <symbol fill="none" xmlns="http://www.w3.org/2000/svg" viewBox="0 0 32 32" id="close">
    <path d="M24 8L8 24" stroke="#121417" stroke-width="2.5" stroke-linecap="round" stroke-linejoin="round"></path>
    <path d="M8 8L24 24" stroke="#121417" stroke-width="2.5" stroke-linecap="round" stroke-linejoin="round"></path>
  </symbol>

  <symbol fill="none" xmlns="http://www.w3.org/2000/svg" viewBox="0 0 20 20" id="eye">
    <g clip-path="url(#clip0_31_2517)">
      <path d="M0.833313 10C0.833313 10 4.16665 3.33337 9.99998 3.33337C15.8333 3.33337 19.1666 10 19.1666 10C19.1666 10 15.8333 16.6667 9.99998 16.6667C4.16665 16.6667 0.833313 10 0.833313 10Z" stroke="#11101C" stroke-width="2" stroke-linecap="round" stroke-linejoin="round"></path>
      <path d="M10 12.5C11.3807 12.5 12.5 11.3807 12.5 10C12.5 8.61929 11.3807 7.5 10 7.5C8.61929 7.5 7.5 8.61929 7.5 10C7.5 11.3807 8.61929 12.5 10 12.5Z" stroke="#11101C" stroke-width="2" stroke-linecap="round" stroke-linejoin="round"></path>
    </g>
    <defs>
      <clipPath id="clip0_31_2517">
        <rect width="20" height="20" fill="white"></rect>
      </clipPath>
    </defs>
  </symbol>

  <symbol fill="none" xmlns="http://www.w3.org/2000/svg" viewBox="0 0 20 20" id="eye-off">
    <g clip-path="url(#clip0_27_348)">
      <path d="M14.9502 14.9499C13.5257 16.0358 11.7911 16.6373 10.0002 16.6666C4.16683 16.6666 0.833496 9.99994 0.833496 9.99994C1.87007 8.06819 3.30778 6.38045 5.05016 5.04994M8.25016 3.53327C8.82377 3.39901 9.41105 3.33189 10.0002 3.33327C15.8335 3.33327 19.1668 9.99994 19.1668 9.99994C18.661 10.9463 18.0577 11.8372 17.3668 12.6583M11.7668 11.7666C11.538 12.0122 11.262 12.2092 10.9553 12.3459C10.6486 12.4825 10.3176 12.556 9.98191 12.5619C9.64623 12.5678 9.3128 12.5061 9.00151 12.3803C8.69021 12.2546 8.40743 12.0675 8.17004 11.8301C7.93264 11.5927 7.74549 11.3099 7.61975 10.9986C7.49402 10.6873 7.43227 10.3539 7.43819 10.0182C7.44411 9.68252 7.51759 9.35148 7.65423 9.04481C7.79087 8.73815 7.98787 8.46215 8.2335 8.23327" stroke="#121417" stroke-width="2" stroke-linecap="round" stroke-linejoin="round"></path>
      <path d="M0.833496 0.833374L19.1668 19.1667" stroke="#121417" stroke-width="2" stroke-linecap="round" stroke-linejoin="round"></path>
    </g>
    <defs>
      <clipPath id="clip0_27_348">
        <rect width="20" height="20" fill="white"></rect>
      </clipPath>
    </defs>
  </symbol>
</svg>